HIERARCHY
ROOT Hips
{
	OFFSET 0.000000 0.000000 0.000000 
	CHANNELS 6 Xposition Yposition Zposition Zrotation Yrotation Xrotation
	JOINT LHipJoint
	{
		OFFSET 0.000000 0.000000 0.000000 
		CHANNELS 3 Zrotation Yrotation Xrotation
		JOINT LeftUpLeg
		{
			OFFSET 1.656740 -1.802820 0.624770 
			CHANNELS 3 Zrotation Yrotation Xrotation
			JOINT LeftLeg
			{
				OFFSET 2.597200 -7.135760 0.000000 
				CHANNELS 3 Zrotation Yrotation Xrotation
				JOINT LeftFoot
				{
					OFFSET 2.492360 -6.847700 0.000000 
					CHANNELS 3 Zrotation Yrotation Xrotation
					JOINT LeftToeBase
					{
						OFFSET 0.197040 -0.541360 2.145810 
						CHANNELS 3 Zrotation Yrotation Xrotation
						End Site
						{
							OFFSET 0.000000 -0.000000 1.112490 
						}
					}
				}
			}
		}
	}
	JOINT RHipJoint
	{
		OFFSET 0.000000 0.000000 0.000000 
		CHANNELS 3 Zrotation Yrotation Xrotation
		JOINT RightUpLeg
		{
			OFFSET -1.610700 -1.802820 0.624760 
			CHANNELS 3 Zrotation Yrotation Xrotation
			JOINT RightLeg
			{
				OFFSET -2.595020 -7.129770 0.000000 
				CHANNELS 3 Zrotation Yrotation Xrotation
				JOINT RightFoot
				{
					OFFSET -2.467800 -6.780240 0.000000 
					CHANNELS 3 Zrotation Yrotation Xrotation
					JOINT RightToeBase
					{
						OFFSET -0.230240 -0.632580 2.133680 
						CHANNELS 3 Zrotation Yrotation Xrotation
						End Site
						{
							OFFSET -0.000000 -0.000000 1.115690 
						}
					}
				}
			}
		}
	}
	JOINT LowerBack
	{
		OFFSET 0.000000 0.000000 0.000000 
		CHANNELS 3 Zrotation Yrotation Xrotation
		JOINT Spine
		{
			OFFSET 0.019610 2.054500 -0.141120 
			CHANNELS 3 Zrotation Yrotation Xrotation
			JOINT Spine1
			{
				OFFSET 0.010210 2.064360 -0.059210 
				CHANNELS 3 Zrotation Yrotation Xrotation
				JOINT Neck
				{
					OFFSET 0.000000 0.000000 0.000000 
					CHANNELS 3 Zrotation Yrotation Xrotation
					JOINT Neck1
					{
						OFFSET 0.007130 1.567110 0.149680 
						CHANNELS 3 Zrotation Yrotation Xrotation
						JOINT Head
						{
							OFFSET 0.034290 1.560410 -0.100060 
							CHANNELS 3 Zrotation Yrotation Xrotation
							End Site
							{
								OFFSET 0.013050 1.625600 -0.052650 
							}
						}
					}
				}
				JOINT LeftShoulder
				{
					OFFSET 0.000000 0.000000 0.000000 
					CHANNELS 3 Zrotation Yrotation Xrotation
					JOINT LeftArm
					{
						OFFSET 3.542050 0.904360 -0.173640 
						CHANNELS 3 Zrotation Yrotation Xrotation
						JOINT LeftForeArm
						{
							OFFSET 4.865130 -0.000000 -0.000000 
							CHANNELS 3 Zrotation Yrotation Xrotation
							JOINT LeftHand
							{
								OFFSET 3.355540 -0.000000 0.000000 
								CHANNELS 3 Zrotation Yrotation Xrotation
								JOINT LeftFingerBase
								{
									OFFSET 0.000000 0.000000 0.000000 
									CHANNELS 3 Zrotation Yrotation Xrotation
									JOINT LeftHandIndex1
									{
										OFFSET 0.661170 -0.000000 0.000000 
										CHANNELS 3 Zrotation Yrotation Xrotation
										End Site
										{
											OFFSET 0.533060 -0.000000 0.000000 
										}
									}
								}
								JOINT LThumb
								{
									OFFSET 0.000000 0.000000 0.000000 
									CHANNELS 3 Zrotation Yrotation Xrotation
									End Site
									{
										OFFSET 0.541200 -0.000000 0.541200 
									}
								}
							}
						}
					}
				}
				JOINT RightShoulder
				{
					OFFSET 0.000000 0.000000 0.000000 
					CHANNELS 3 Zrotation Yrotation Xrotation
					JOINT RightArm
					{
						OFFSET -3.498020 0.759940 -0.326160 
						CHANNELS 3 Zrotation Yrotation Xrotation
						JOINT RightForeArm
						{
							OFFSET -5.026490 -0.000000 0.000000 
							CHANNELS 3 Zrotation Yrotation Xrotation
							JOINT RightHand
							{
								OFFSET -3.364310 -0.000000 0.000000 
								CHANNELS 3 Zrotation Yrotation Xrotation
								JOINT RightFingerBase
								{
									OFFSET 0.000000 0.000000 0.000000 
									CHANNELS 3 Zrotation Yrotation Xrotation
									JOINT RightHandIndex1
									{
										OFFSET -0.730410 -0.000000 0.000000 
										CHANNELS 3 Zrotation Yrotation Xrotation
										End Site
										{
											OFFSET -0.588870 -0.000000 0.000000 
										}
									}
								}
								JOINT RThumb
								{
									OFFSET 0.000000 0.000000 0.000000 
									CHANNELS 3 Zrotation Yrotation Xrotation
									End Site
									{
										OFFSET -0.597860 -0.000000 0.597860 
									}
								}
							}
						}
					}
				}
			}
		}
	}
}
MOTION
Frames: 12
Frame Time: 0.008333
-0.373700 17.488800 0.000000 2.300000 -3.296600 -5.431300 0.000000 0.000000 0.000000 -28.680799 -3.623000 -6.038500 2.365200 9.588500 27.654200 0.628100 5.491000 -17.971001 0.015000 -0.791600 -2.175600 0.000000 0.000000 0.000000 18.310400 7.614900 -11.693900 -13.221700 -18.860701 69.812698 0.772600 -15.552900 -8.551900 -0.763700 5.580800 -15.572700 -1.485000 -0.038900 5.852400 0.084900 -0.138100 1.649500 0.930400 -0.067100 -1.579200 3.740000 7.973800 -8.231100 -3.837700 10.550800 5.695500 -1.278000 5.152600 3.776200 -0.000000 -0.000000 0.000000 -91.188400 3.967300 22.531099 21.537001 -32.449799 -6.335600 -0.000000 0.000000 -24.801500 23.521200 21.989300 9.256300 -7.125000 0.000000 -0.000000 -5.587600 53.662498 -1.193000 -0.000000 -0.000000 0.000000 85.584503 1.744800 32.479000 -16.814800 26.612900 -4.004000 0.000000 -0.000000 -11.062900 -22.491199 14.924700 -6.086700 7.125000 -0.000000 -0.000000 3.425700 -13.908500 2.506400 
-0.370300 17.496901 0.000000 1.940100 -2.892200 -5.474000 0.000000 0.000000 0.000000 -28.384100 -3.653500 -5.446600 2.371600 9.600600 27.692801 0.645300 5.443300 -18.125099 0.075700 -1.775200 -4.884800 0.000000 0.000000 0.000000 18.683201 8.070800 -12.764600 -13.115400 -18.823400 69.483597 0.752800 -15.588100 -9.759100 -0.789900 5.673500 -15.839800 -1.210400 -0.080000 6.122400 0.279300 -0.176400 1.652000 0.979700 -0.085700 -1.726300 3.604200 7.848700 -8.225400 -3.913900 10.408300 5.773600 -1.289000 5.075400 3.793000 0.000000 0.000000 0.000000 -90.936501 3.502600 23.892300 22.614000 -33.664001 -6.923100 -0.000000 0.000000 -25.308901 23.517799 22.464800 9.441300 -7.125000 0.000000 -0.000000 -5.748900 54.161598 -1.297700 0.000000 0.000000 0.000000 85.654800 0.976800 31.493099 -16.173700 25.755600 -3.721100 0.000000 -0.000000 -10.833800 -22.597799 14.829500 -6.080600 7.125000 -0.000000 -0.000000 3.347900 -13.997600 2.442900 
-0.366400 17.491899 0.000000 1.732600 -2.432400 -5.305900 0.000000 0.000000 0.000000 -28.254400 -3.716900 -5.060600 2.379400 9.615200 27.739401 0.688500 5.176600 -18.402399 0.115600 -2.191600 -6.035500 0.000000 0.000000 0.000000 18.783501 8.510400 -14.112700 -12.973100 -18.772400 69.041901 0.678700 -15.301600 -11.226900 -0.717400 5.412500 -15.089100 -1.039800 -0.183100 6.193500 0.379500 -0.301900 1.533600 0.997100 -0.147100 -1.884900 3.514500 7.689500 -7.870800 -3.951000 10.210100 5.542700 -1.317800 4.980800 3.631100 0.000000 -0.000000 0.000000 -90.527000 3.235000 25.264900 23.790300 -34.941799 -7.586100 -0.000000 0.000000 -26.020100 23.763800 22.631800 9.616300 -7.125000 0.000000 -0.000000 -5.549600 54.385502 -1.282900 0.000000 -0.000000 0.000000 85.748001 0.049400 30.915800 -15.585100 24.954901 -3.469100 0.000000 -0.000000 -11.308200 -22.601000 15.386300 -6.302800 7.125000 -0.000000 -0.000000 3.379400 -13.402700 2.508500 
-0.360400 17.481199 0.000000 1.981500 -1.945000 -5.153700 0.000000 0.000000 0.000000 -28.656700 -3.776200 -4.548200 2.372300 9.601900 27.697100 0.780000 4.640000 -18.998199 0.056900 -1.539600 -4.235000 0.000000 0.000000 0.000000 18.276800 8.835600 -15.438000 -12.785800 -18.703501 68.459000 0.626100 -15.034700 -11.850700 -0.775400 5.622400 -15.692700 -1.417400 -0.325500 6.119000 0.391400 -0.514100 1.479300 1.237300 -0.251200 -1.890400 3.625300 7.629600 -7.614100 -4.124700 10.136100 5.443800 -1.410100 4.944200 3.563300 0.000000 0.000000 0.000000 -90.270500 2.967700 26.222900 25.103701 -36.309799 -8.351200 -0.000000 0.000000 -26.544500 24.031700 22.731701 9.776100 -7.125000 0.000000 -0.000000 -5.303700 54.543701 -1.246200 0.000000 0.000000 0.000000 85.776604 -0.826700 30.549000 -15.076600 24.252800 -3.257400 0.000000 -0.000000 -12.028200 -22.730200 16.274799 -6.696000 7.125000 -0.000000 -0.000000 3.350300 -12.438500 2.554500 
-0.357500 17.459200 0.000000 2.280900 -1.497900 -5.216400 0.000000 0.000000 0.000000 -29.120600 -3.639200 -3.730600 2.334700 9.531000 27.470800 0.844400 4.301400 -19.433100 0.056200 -1.529100 -4.206100 0.000000 0.000000 0.000000 17.789700 9.221200 -16.454100 -12.560200 -18.617500 67.753700 0.580700 -14.702800 -12.046300 -0.839900 5.845800 -16.337799 -1.779000 -0.406500 6.082600 0.347400 -0.643700 1.631400 1.403600 -0.317500 -1.705700 3.478400 7.585800 -7.609500 -4.000600 10.077200 5.295000 -1.351000 4.918100 3.489500 -0.000000 -0.000000 0.000000 -90.031998 2.346500 27.045900 26.371099 -37.572800 -9.113000 -0.000000 0.000000 -26.753700 24.121500 22.074600 9.552100 -7.125000 0.000000 -0.000000 -4.994700 53.868500 -1.091100 -0.000000 -0.000000 0.000000 86.029900 -1.247500 29.299299 -14.398900 23.302200 -2.984100 0.000000 -0.000000 -11.535100 -22.534599 15.893900 -6.482700 7.125000 -0.000000 -0.000000 3.456000 -12.869500 2.604200 
-0.351300 17.435400 0.000000 2.684600 -1.019400 -5.550000 0.000000 0.000000 0.000000 -29.757401 -3.333600 -2.504000 2.292300 9.450100 27.213699 0.893200 4.141500 -19.813700 0.095100 -1.989200 -5.475800 0.000000 0.000000 0.000000 17.191601 9.446600 -16.961399 -12.256400 -18.496901 66.799103 0.469200 -13.955500 -12.717000 -0.828100 5.805800 -16.222000 -2.130100 -0.509400 6.120400 0.222600 -0.803200 1.860700 1.482700 -0.400800 -1.481600 3.245600 7.584800 -7.491900 -3.739800 10.076900 5.127900 -1.234000 4.926100 3.375400 -0.000000 -0.000000 0.000000 -89.748596 1.735100 27.747999 27.539101 -38.688499 -9.834300 -0.000000 0.000000 -26.988600 24.071600 20.446400 8.869800 -7.125000 0.000000 -0.000000 -4.558500 52.134998 -0.802100 -0.000000 -0.000000 0.000000 86.291000 -1.721800 28.052500 -13.735100 22.354700 -2.726500 0.000000 -0.000000 -10.547400 -22.241899 14.388400 -5.802500 7.125000 -0.000000 -0.000000 3.564600 -14.509500 2.562900 
-0.340100 17.415400 0.000000 2.968400 -0.410600 -5.844300 0.000000 0.000000 0.000000 -30.262400 -3.136300 -1.338800 2.267700 9.402700 27.063400 0.975400 3.707700 -20.344999 0.069700 -1.703300 -4.686300 0.000000 0.000000 0.000000 16.652300 9.501500 -17.393101 -11.861700 -18.331600 65.549797 0.320900 -13.012000 -13.685700 -0.775700 5.623500 -15.695700 -2.478600 -0.680600 6.415200 0.206300 -1.059600 1.930400 1.684000 -0.528300 -1.557000 3.353300 7.613600 -7.529000 -3.863400 10.120100 5.320300 -1.284900 4.943000 3.466900 0.000000 -0.000000 0.000000 -89.656898 1.443100 28.234301 28.811600 -39.852798 -10.639800 -0.000000 0.000000 -27.059401 23.873899 19.380501 8.355300 -7.125000 0.000000 -0.000000 -4.469100 50.967499 -0.658200 0.000000 -0.000000 0.000000 86.325600 -2.605500 26.947901 -13.274400 21.687901 -2.553800 0.000000 -0.000000 -9.744700 -22.002899 13.862900 -5.530100 7.125000 -0.000000 -0.000000 3.700400 -15.096100 2.614500 
-0.336101 17.405701 0.000000 2.508200 0.067900 -5.637400 0.000000 0.000000 0.000000 -29.815001 -3.190300 -0.918500 2.257200 9.382400 26.998899 1.035000 3.325400 -20.687300 0.069400 -1.699400 -4.675600 0.000000 0.000000 0.000000 16.981400 10.010800 -18.352900 -11.382700 -18.117300 64.018303 0.201800 -12.368000 -14.621000 -0.639100 5.114800 -14.236200 -2.207100 -0.832000 6.662400 0.453800 -1.245900 1.752000 1.807300 -0.615900 -1.869900 3.453600 7.596100 -7.790900 -3.952200 10.101300 5.735100 -1.315000 4.925400 3.675000 -0.000000 -0.000000 0.000000 -89.478302 1.260400 28.981300 30.184401 -41.050999 -11.530600 -0.000000 0.000000 -27.178101 23.604300 19.243099 8.195300 -7.125000 0.000000 -0.000000 -4.701200 50.775398 -0.670300 -0.000000 -0.000000 0.000000 86.435898 -3.417100 25.301901 -12.744800 20.912201 -2.361400 0.000000 -0.000000 -8.750400 -21.593300 14.045600 -5.486800 7.125000 -0.000000 -0.000000 3.989200 -14.946000 2.832400 
-0.336400 17.407801 0.000000 1.871900 0.405100 -5.399900 0.000000 0.000000 0.000000 -29.141199 -3.229100 -0.559900 2.252400 9.373100 26.969500 1.104100 3.019400 -21.150101 0.076500 -1.784700 -4.911100 0.000000 0.000000 0.000000 17.526100 10.737100 -19.237499 -10.815700 -17.843700 62.181801 0.112000 -11.876400 -15.268000 -0.687500 5.300900 -14.768800 -1.691500 -0.947700 6.720800 0.696000 -1.361100 1.572300 1.780100 -0.670800 -2.088600 3.383000 7.571000 -7.658300 -3.781100 10.070200 5.878100 -1.251700 4.916200 3.681800 -0.000000 0.000000 0.000000 -89.024597 1.079400 30.042400 31.499001 -42.144100 -12.403300 -0.000000 0.000000 -27.611200 23.571100 19.231600 8.177900 -7.125000 0.000000 -0.000000 -4.731300 50.757500 -0.672500 -0.000000 0.000000 0.000000 86.645103 -4.260800 23.933201 -12.191800 20.091600 -2.167700 0.000000 -0.000000 -8.119300 -21.479000 14.492500 -5.623900 7.125000 -0.000000 -0.000000 4.088700 -14.484100 2.943800 
-0.336400 17.411600 0.000000 1.736300 0.785300 -5.387000 0.000000 0.000000 0.000000 -29.017401 -2.998900 0.087500 2.236800 9.342800 26.873699 1.187100 2.623500 -21.679300 0.073400 -1.747600 -4.808700 0.000000 0.000000 0.000000 17.487600 11.243600 -19.712999 -10.183600 -17.511801 60.100399 0.007700 -11.185900 -15.810100 -0.892400 6.021200 -16.846001 -1.706400 -1.063700 6.646800 0.810900 -1.512400 1.628300 1.916700 -0.747800 -1.979600 3.002000 7.586300 -7.709200 -3.372300 10.098900 5.960500 -1.048200 4.937000 3.668600 0.000000 -0.000000 0.000000 -88.692398 0.643600 30.833700 32.720901 -43.114399 -13.230900 -0.000000 0.000000 -27.976000 23.784201 18.489201 7.956400 -7.125000 0.000000 -0.000000 -4.333400 50.003700 -0.535400 0.000000 -0.000000 0.000000 86.702202 -5.040200 23.064600 -11.717200 19.379101 -2.007400 0.000000 -0.000000 -8.021200 -21.563700 15.365100 -5.977900 7.125000 -0.000000 -0.000000 4.076900 -13.549200 3.016100 
-0.336700 17.407900 0.000000 1.951500 1.231400 -5.555700 0.000000 0.000000 0.000000 -29.279600 -2.672300 1.062300 2.172100 9.215700 26.472300 1.192100 2.422100 -21.627701 0.094000 -1.977300 -5.443000 0.000000 0.000000 0.000000 17.112000 11.480700 -19.862900 -9.532300 -17.138300 57.913300 -0.100700 -10.466200 -16.371000 -0.909700 6.077600 -17.009701 -2.040000 -1.105700 6.733800 0.796600 -1.591700 1.831900 2.094700 -0.790400 -1.805700 2.590900 7.516000 -8.073600 -2.965400 10.008500 6.012300 -0.837100 4.894800 3.700400 -0.000000 0.000000 0.000000 -88.411598 0.115200 31.548700 34.209202 -44.239101 -14.258800 -0.000000 0.000000 -28.182199 24.051600 17.610001 7.689800 -7.125000 0.000000 -0.000000 -3.866800 49.107899 -0.392300 -0.000000 0.000000 0.000000 86.921799 -5.631000 21.397400 -11.262700 18.689699 -1.859200 0.000000 -0.000000 -7.322300 -21.343800 15.882900 -6.104100 7.125000 -0.000000 -0.000000 4.253400 -13.027200 3.194200 
-0.334600 17.401100 0.000000 2.140800 1.677500 -5.754600 0.000000 0.000000 0.000000 -29.555201 -2.478500 2.327400 2.047800 8.964800 25.685400 1.176200 2.213400 -21.394600 0.067400 -1.674400 -4.606600 0.000000 0.000000 0.000000 16.764999 11.750000 -19.912901 -8.869900 -16.723301 55.639099 -0.189100 -9.851400 -16.795500 -0.771500 5.608600 -15.652900 -2.249500 -1.125200 7.018600 0.743700 -1.638200 1.915800 2.167600 -0.813000 -1.870700 2.524700 7.373000 -7.957800 -2.929900 9.813600 5.691900 -0.838100 4.802300 3.552900 -0.000000 -0.000000 0.000000 -88.074303 -0.125900 32.280800 35.953800 -45.481300 -15.489500 -0.000000 0.000000 -28.308800 24.273701 17.828100 7.861000 -7.125000 0.000000 -0.000000 -3.699100 49.376701 -0.399700 -0.000000 -0.000000 0.000000 87.291801 -6.332100 19.345699 -10.796900 17.976200 -1.712700 0.000000 -0.000000 -6.190500 -21.257700 15.912500 -6.088200 7.125000 -0.000000 -0.000000 4.312800 -13.006200 3.241000 
